<?xml version="1.0" standalone="no"?>
<!DOCTYPE svg PUBLIC "-//W3C//DTD SVG 20010904//EN"
 "http://www.w3.org/TR/2001/REC-SVG-20010904/DTD/svg10.dtd">
<svg version="1.0" xmlns="http://www.w3.org/2000/svg"
 width="64.000000pt" height="64.000000pt" viewBox="0 0 64.000000 64.000000"
 preserveAspectRatio="xMidYMid meet">

<g transform="translate(0.000000,64.000000) scale(0.100000,-0.100000)"
fill="#000000" stroke="none">
<path d="M260 420 c-19 -19 -20 -24 -7 -43 8 -12 24 -23 36 -25 16 -3 21 -10
21 -32 0 -22 -5 -29 -21 -32 -12 -2 -28 -13 -36 -25 -13 -19 -12 -24 7 -43 19
-19 24 -20 43 -7 12 8 23 24 25 36 5 30 59 30 64 0 2 -12 13 -28 25 -36 19
-13 24 -12 43 7 19 19 20 24 7 43 -8 12 -24 23 -36 25 -30 5 -30 59 0 64 12 2
28 13 36 25 13 19 12 24 -7 43 -19 19 -24 20 -43 7 -12 -8 -23 -24 -25 -36 -3
-16 -10 -21 -32 -21 -22 0 -29 5 -32 21 -2 12 -13 28 -25 36 -19 13 -24 12
-43 -7z m48 -28 c3 -16 -2 -22 -17 -22 -26 0 -36 17 -20 36 16 19 33 13 37
-14z m142 13 c15 -18 5 -35 -21 -35 -12 0 -19 7 -19 18 0 33 20 42 40 17z
m-60 -85 c0 -27 -3 -30 -30 -30 -27 0 -30 3 -30 30 0 27 3 30 30 30 27 0 30
-3 30 -30z m-80 -69 c0 -27 -19 -36 -37 -18 -18 18 -9 37 18 37 12 0 19 -7 19
-19z m146 8 c8 -14 -21 -43 -35 -35 -6 4 -11 16 -11 27 0 21 34 27 46 8z"/>
</g>
</svg>
